# xmcd
#
# Track frame offsets: 
#        150
#        22243
#        39449
#        58312
#        88154
#        108392
#        124868
#        146042
#        167973
#        188102
#        205266
#        225608
#        243095
#        261080
#        282184
#        303230
#
# Disc length: 4322 seconds
#
# Revision: 0
# Processed by: cddbd v1.5.2PL0 Copyright (c) Steve Scherf et al.
# Submitted via: ExactAudioCopyFreeDBPlugin 1.0
#
DISCID=e910e010
DTITLE=群星 - Dts 女人的感悟Ⅲ
DYEAR=2010
DGENRE=Acid
TTITLE0=传奇
TTITLE1=分手不应该在秋天
TTITLE2=原谅我一次
TTITLE3=爱上负心人
TTITLE4=最后一次
TTITLE5=天使的翅膀
TTITLE6=女人如烟
TTITLE7=给我一次疼你的机会
TTITLE8=爱情苦酒
TTITLE9=爱的无药可救
TTITLE10=女人的情歌
TTITLE11=斯琴高丽的伤心
TTITLE12=心在跳情在烧
TTITLE13=别等我离开才说爱我
TTITLE14=关不上的窗
TTITLE15=得到你的人却得不到你的心
EXTD=
EXTT0=
EXTT1=
EXTT2=
EXTT3=
EXTT4=
EXTT5=
EXTT6=
EXTT7=
EXTT8=
EXTT9=
EXTT10=
EXTT11=
EXTT12=
EXTT13=
EXTT14=
EXTT15=
PLAYORDER=
